<svg width="40" height="40" viewBox="0 0 40 40" fill="none" xmlns="http://www.w3.org/2000/svg">
<path fill-rule="evenodd" clip-rule="evenodd" d="M27.7875 5.82505C28.2089 5.40879 28.7082 5.07981 29.257 4.85696C29.8058 4.63412 30.3931 4.5218 30.9854 4.52644C31.5777 4.53109 32.1632 4.65261 32.7084 4.88403C33.2536 5.11546 33.7478 5.45224 34.1625 5.87505C37.8786 9.63714 39.9625 14.7121 39.9625 20.0001C39.9625 21.1935 39.4884 22.3381 38.6445 23.182C37.8006 24.0259 36.656 24.5001 35.4625 24.5001C34.2691 24.5001 33.1245 24.0259 32.2805 23.182C31.4366 22.3381 30.9625 21.1935 30.9625 20.0001C30.9625 17.0001 29.7375 14.2376 27.7375 12.2001C27.3205 11.7795 26.9905 11.2808 26.7666 10.7325C26.5427 10.1842 26.4292 9.59703 26.4327 9.00477C26.4362 8.4125 26.5565 7.82675 26.7869 7.2811C27.0172 6.73545 27.353 6.24064 27.775 5.82505H27.7875Z" fill="url(#paint0_linear_56_7)"/>
<path fill-rule="evenodd" clip-rule="evenodd" d="M15.5 4.5C15.5 3.30653 15.9741 2.16193 16.818 1.31802C17.6619 0.474106 18.8065 0 20 0C25.5 0 30.5 2.25 34.1125 5.825C34.9629 6.66375 35.4452 7.80594 35.4534 9.00031C35.4616 10.1947 34.995 11.3434 34.1563 12.1938C33.7409 12.6148 33.2468 12.9499 32.702 13.18C32.1571 13.4101 31.5723 13.5306 30.9809 13.5346C29.7866 13.5428 28.6379 13.0762 27.7875 12.2375C25.7195 10.1747 22.9209 9.01124 20 9C18.8065 9 17.6619 8.52589 16.818 7.68198C15.9741 6.83807 15.5 5.69347 15.5 4.5Z" fill="url(#paint1_linear_56_7)"/>
<path fill-rule="evenodd" clip-rule="evenodd" d="M0 20C0 14.6957 2.10714 9.60859 5.85786 5.85787C9.60859 2.10714 14.6957 0 20 0C21.1935 0 22.3381 0.474106 23.182 1.31802C24.0259 2.16193 24.5 3.30653 24.5 4.5C24.5 5.69347 24.0259 6.83807 23.182 7.68198C22.3381 8.5259 21.1935 9 20 9C17.8212 8.99877 15.6912 9.64458 13.88 10.8555C12.0687 12.0665 10.6579 13.7881 9.82639 15.8019C8.99488 17.8157 8.78013 20.0312 9.20939 22.1672C9.63864 24.3033 10.6926 26.2637 12.2375 27.8C13.0762 28.6504 13.5428 29.7991 13.5346 30.9934C13.5264 32.1878 13.0441 33.33 12.1938 34.1688C11.3434 35.0075 10.1947 35.4741 9.00031 35.4659C7.80594 35.4577 6.66375 34.9754 5.825 34.125C2.09975 30.367 0.00669625 25.2915 0 20Z" fill="url(#paint2_linear_56_7)"/>
<path fill-rule="evenodd" clip-rule="evenodd" d="M5.82505 27.8C6.24064 27.378 6.73545 27.0422 7.2811 26.8119C7.82675 26.5815 8.4125 26.4611 9.00476 26.4577C9.59703 26.4542 10.1842 26.5676 10.7325 26.7916C11.2808 27.0155 11.7795 27.3454 12.2001 27.7625C14.2681 29.8253 17.0666 30.9887 19.9876 31C21.181 31 22.3256 31.4741 23.1695 32.318C24.0134 33.1619 24.4876 34.3065 24.4876 35.5C24.4876 36.6935 24.0134 37.8381 23.1695 38.682C22.3256 39.5259 21.181 40 19.9876 40C14.4876 40 9.48755 37.75 5.86255 34.175C5.44056 33.7594 5.10477 33.2646 4.87442 32.7189C4.64407 32.1733 4.5237 31.5875 4.52022 30.9953C4.51674 30.403 4.6302 29.8159 4.85412 29.2676C5.07803 28.7192 5.40798 28.2205 5.82505 27.8Z" fill="url(#paint3_linear_56_7)"/>
<path fill-rule="evenodd" clip-rule="evenodd" d="M35.475 15.5C36.0659 15.5 36.6511 15.6164 37.1971 15.8425C37.743 16.0687 38.2391 16.4002 38.657 16.818C39.0748 17.2359 39.4063 17.732 39.6325 18.2779C39.8586 18.8239 39.975 19.4091 39.975 20C39.975 25.3 37.8713 30.3833 34.126 34.1333C30.3807 37.8833 25.3 39.9934 20 40C18.8065 40 17.6619 39.5259 16.818 38.682C15.9741 37.8381 15.5 36.6935 15.5 35.5C15.5 34.3065 15.9741 33.1619 16.818 32.318C17.6619 31.4741 18.8065 31 20 31C21.4445 31 22.8749 30.7155 24.2095 30.1627C25.5441 29.6099 26.7567 28.7996 27.7782 27.7782C28.7996 26.7567 29.6099 25.5441 30.1627 24.2095C30.7155 22.8749 31 21.4445 31 20C31 19.4091 31.1164 18.8239 31.3425 18.2779C31.5687 17.732 31.9002 17.2359 32.318 16.818C32.7359 16.4002 33.232 16.0687 33.7779 15.8425C34.3239 15.6164 34.9091 15.5 35.5 15.5H35.475Z" fill="url(#paint4_linear_56_7)"/>
<path fill-rule="evenodd" clip-rule="evenodd" d="M35.4751 15.5C36.066 15.5 36.6512 15.6164 37.1972 15.8425C37.7431 16.0687 38.2392 16.4002 38.6571 16.818C39.0749 17.2359 39.4064 17.732 39.6326 18.2779C39.8587 18.8239 39.9751 19.4091 39.9751 20V35.5C39.9751 36.6935 39.501 37.8381 38.6571 38.682C37.8132 39.5259 36.6686 40 35.4751 40C34.2816 40 33.137 39.5259 32.2931 38.682C31.4492 37.8381 30.9751 36.6935 30.9751 35.5V20C30.9751 18.8065 31.4492 17.6619 32.2931 16.818C33.137 15.9741 34.2816 15.5 35.4751 15.5Z" fill="url(#paint5_linear_56_7)"/>
<mask id="mask0_56_7" style="mask-type:luminance" maskUnits="userSpaceOnUse" x="31" y="15" width="9" height="10">
<path d="M31 15H40V25H31V15Z" fill="white"/>
</mask>
<g mask="url(#mask0_56_7)">
<path fill-rule="evenodd" clip-rule="evenodd" d="M27.7875 5.82505C28.2089 5.40879 28.7082 5.07981 29.257 4.85696C29.8058 4.63412 30.3931 4.5218 30.9854 4.52644C31.5777 4.53109 32.1632 4.65261 32.7084 4.88403C33.2536 5.11546 33.7478 5.45224 34.1625 5.87505C37.8786 9.63714 39.9625 14.7121 39.9625 20.0001C39.9625 21.1935 39.4884 22.3381 38.6445 23.182C37.8006 24.0259 36.656 24.5001 35.4625 24.5001C34.2691 24.5001 33.1245 24.0259 32.2805 23.182C31.4366 22.3381 30.9625 21.1935 30.9625 20.0001C30.9625 17.0001 29.7375 14.2376 27.7375 12.2001C27.3205 11.7795 26.9905 11.2808 26.7666 10.7325C26.5427 10.1842 26.4292 9.59703 26.4327 9.00477C26.4362 8.4125 26.5565 7.82675 26.7869 7.2811C27.0172 6.73545 27.353 6.24064 27.775 5.82505H27.7875Z" fill="url(#paint6_linear_56_7)"/>
</g>
<defs>
<linearGradient id="paint0_linear_56_7" x1="33" y1="12.0001" x2="36" y2="18.7626" gradientUnits="userSpaceOnUse">
<stop stop-color="#7E22CE"/>
<stop offset="1" stop-color="#8B5CF6"/>
</linearGradient>
<linearGradient id="paint1_linear_56_7" x1="33.5" y1="11.75" x2="22.25" y2="4.5125" gradientUnits="userSpaceOnUse">
<stop stop-color="#EF4444"/>
<stop offset="1" stop-color="#DC2626"/>
</linearGradient>
<linearGradient id="paint2_linear_56_7" x1="4.5" y1="17.5125" x2="6.75" y2="31.0125" gradientUnits="userSpaceOnUse">
<stop stop-color="#22C55E"/>
<stop offset="1" stop-color="#15803D"/>
</linearGradient>
<linearGradient id="paint3_linear_56_7" x1="6.00005" y1="27.7625" x2="18" y2="36.5125" gradientUnits="userSpaceOnUse">
<stop stop-color="#94A3B8"/>
<stop offset="0.96" stop-color="#64748B"/>
<stop offset="1" stop-color="#64748B"/>
</linearGradient>
<linearGradient id="paint4_linear_56_7" x1="35.5" y1="27.725" x2="27.7375" y2="35.5" gradientUnits="userSpaceOnUse">
<stop stop-color="#D97706"/>
<stop offset="1" stop-color="#FBBF24"/>
</linearGradient>
<linearGradient id="paint5_linear_56_7" x1="36.5001" y1="68.0375" x2="38.2876" y2="67.85" gradientUnits="userSpaceOnUse">
<stop stop-color="#FBBF24"/>
<stop offset="1" stop-color="#FBBF24"/>
</linearGradient>
<linearGradient id="paint6_linear_56_7" x1="33" y1="12.0001" x2="36" y2="18.7626" gradientUnits="userSpaceOnUse">
<stop stop-color="#7E22CE"/>
<stop offset="1" stop-color="#8B5CF6"/>
</linearGradient>
</defs>
</svg>
