<svg width="40" height="40" viewBox="0 0 40 40" fill="none" xmlns="http://www.w3.org/2000/svg">
<path d="M6.66667 0C2.985 0 0 2.985 0 6.66667V33.3333C0 37.015 2.985 40 6.66667 40H33.3333C37.015 40 40 37.015 40 33.3333V6.66667C40 2.985 37.015 0 33.3333 0H6.66667ZM23.3333 12.5H31.6667V14.6419H23.3333V12.5ZM7.62207 12.5016H14.7998C15.579 12.5016 19.7933 12.4515 19.7933 16.3265C19.7933 18.3865 18.3878 19.0814 17.7637 19.3864C18.6995 19.6931 20.415 20.5612 20.415 23.2129C20.4159 27.3229 15.7356 27.4992 15.1123 27.5H7.62207V12.5016ZM10.8219 15.1009V18.6214H14.2562C14.7237 18.6214 16.2826 18.358 16.2826 16.7855C16.2826 15.213 14.2545 15.1009 13.9437 15.1009H10.8219ZM27.749 15.8333C31.8815 15.8333 33.0031 19.0583 33.1689 19.8275C33.3331 20.5966 33.3333 21.2772 33.3333 22.1989H24.9544C24.9544 23.1206 25.4443 25.2002 27.9118 25.2002C28.5693 25.2002 29.0632 25.0446 29.5557 24.738C30.0482 24.4296 30.2118 24.1226 30.376 23.8151H33.1689C32.6764 25.0434 32.0194 25.9662 31.0319 26.5804C30.0469 27.1946 28.8963 27.5 27.583 27.5C26.7613 27.5 25.938 27.3461 25.1172 27.0378C24.4597 26.7294 23.8038 26.2722 23.3122 25.8105C22.8188 25.3522 22.4898 24.7372 22.1615 23.9697C21.8323 23.3564 21.6667 22.4333 21.6667 21.6667C21.6667 20.9008 21.974 15.8333 27.749 15.8333ZM27.596 17.8857C25.1835 17.8857 24.7884 20.2112 24.7884 20.3646H30.0732C29.9082 19.5912 29.2144 17.8857 27.596 17.8857ZM10.7878 20.7666V24.8975H14.3783C14.6899 24.8975 16.8734 24.7952 16.8734 22.9085C16.8742 21.0194 15.1583 20.7666 14.3783 20.7666H10.7878Z" fill="black"/>
</svg>
