<svg width="40" height="40" viewBox="0 0 40 40" fill="none" xmlns="http://www.w3.org/2000/svg">
<path d="M26.8828 19.1016C26.5 18.7734 26.0234 18.6094 25.4609 18.6094C24.8516 18.6094 24.375 18.7812 24.0313 19.1328C23.6953 19.4844 23.4844 19.9531 23.3906 20.5469H27.5078C27.4766 19.9141 27.2578 19.4375 26.8828 19.1016Z" fill="black"/>
<path d="M16.7422 20.7891C16.4453 20.6563 16.0391 20.5859 15.5078 20.5781H12.4609V23.875H15.4688C16.0078 23.875 16.4219 23.8047 16.7188 23.6562C17.2656 23.3828 17.5312 22.875 17.5312 22.1172C17.5312 21.4766 17.2656 21.0313 16.7422 20.7891Z" fill="black"/>
<path d="M20 0C8.95313 0 0 8.95313 0 20C0 31.0469 8.95313 40 20 40C31.0469 40 40 31.0469 40 20C40 8.95313 31.0469 0 20 0ZM22.7813 14.2422H28.0781V15.7812H22.7813V14.2422ZM19.5859 24.2656C19.3516 24.6484 19.0625 24.9766 18.7109 25.2344C18.3203 25.5391 17.8516 25.7422 17.3125 25.8594C16.7734 25.9687 16.1953 26.0234 15.5625 26.0234H10V13.6641H15.9766C17.4844 13.6875 18.5547 14.125 19.1797 14.9844C19.5547 15.5078 19.7422 16.1406 19.7422 16.875C19.7422 17.625 19.5547 18.2344 19.1719 18.6953C18.9609 18.9531 18.6406 19.1875 18.2266 19.3984C18.8594 19.6328 19.3359 19.9922 19.6563 20.4922C19.9766 20.9922 20.1406 21.5937 20.1406 22.3047C20.1406 23.0234 19.9531 23.6797 19.5859 24.2656ZM30 22.125H23.3437C23.3828 23.0391 23.6953 23.6875 24.2969 24.0547C24.6641 24.2812 25.1016 24.3984 25.6172 24.3984C26.1562 24.3984 26.6016 24.2578 26.9453 23.9766C27.1328 23.8281 27.2969 23.6172 27.4375 23.3437H29.875C29.8125 23.8828 29.5156 24.4375 28.9922 25C28.1719 25.8906 27.0313 26.3359 25.5547 26.3359C24.3359 26.3359 23.2656 25.9609 22.3359 25.2109C21.4062 24.4609 20.9375 23.2422 20.9375 21.5547C20.9375 19.9687 21.3594 18.7578 22.1953 17.9141C23.0391 17.0703 24.125 16.6484 25.4609 16.6484C26.2578 16.6484 26.9766 16.7891 27.6094 17.0781C28.25 17.3594 28.7734 17.8125 29.1875 18.4297C29.5625 18.9687 29.8047 19.6016 29.9141 20.3203C29.9844 20.7344 30.0078 21.3359 30 22.125Z" fill="black"/>
<path d="M16.7812 18.2266C17.1172 18.0234 17.2812 17.6562 17.2812 17.1406C17.2812 16.5625 17.0625 16.1875 16.6172 16C16.2344 15.875 15.75 15.8047 15.1562 15.8047H12.4688V18.5312H15.4687C16.0078 18.5391 16.4375 18.4375 16.7812 18.2266Z" fill="black"/>
</svg>
