<svg width="40" height="40" viewBox="0 0 40 40" fill="none" xmlns="http://www.w3.org/2000/svg">
<rect x="27" y="32.3145" width="11.9865" height="5.19684" transform="rotate(-29.1849 27 32.3145)" fill="#201D24"/>
<path d="M2.68103 9.99601L5.43754 18.4074L11.3422 24.9983L20.0015 10.0005L37.322 9.99792C33.8626 4.02038 27.4014 0 20.0015 0C12.6016 0 6.1404 4.02102 2.68103 9.99601Z" fill="url(#paint0_linear_58_100)"/>
<path d="M19.999 40L25.9037 33.4071L28.6583 24.9983H11.3403L2.67913 9.99792C-0.766182 15.9819 -1.01857 23.5888 2.68169 29.9976C6.38386 36.4064 13.0975 39.993 19.9996 40H19.999Z" fill="url(#paint1_linear_58_100)"/>
<path d="M37.322 10.0005H20.0015L28.6608 25.0002L20.0015 40C26.9062 39.9929 33.6198 36.4071 37.3195 29.9976C41.0197 23.5887 40.7673 15.9818 37.322 9.99982V10.0005Z" fill="url(#paint2_linear_58_100)"/>
<path d="M20.0015 29.9976C25.5232 29.9976 29.9994 25.5205 29.9994 19.9978C29.9994 14.475 25.5232 9.99792 20.0015 9.99792C14.4798 9.99792 10.0036 14.475 10.0036 19.9978C10.0036 25.5205 14.4798 29.9976 20.0015 29.9976Z" fill="white"/>
<path d="M20.0015 28.1229C24.4875 28.1229 28.1241 24.4852 28.1241 19.9978C28.1241 15.5104 24.4875 11.8727 20.0015 11.8727C15.5156 11.8727 11.879 15.5104 11.879 19.9978C11.879 24.4852 15.5156 28.1229 20.0015 28.1229Z" fill="#1A73E8"/>
<rect x="10" y="19" width="30" height="12" fill="#414141"/>
<path d="M16.3076 28V27.064H17.9816C18.4736 27.064 18.8936 26.965 19.2416 26.767C19.5896 26.569 19.8536 26.293 20.0336 25.939C20.2196 25.585 20.3126 25.18 20.3126 24.724C20.3126 24.274 20.2196 23.878 20.0336 23.536C19.8536 23.194 19.5896 22.93 19.2416 22.744C18.8996 22.552 18.4796 22.456 17.9816 22.456H16.3256V21.52H17.9816C18.6896 21.52 19.3076 21.652 19.8356 21.916C20.3636 22.18 20.7716 22.555 21.0596 23.041C21.3536 23.521 21.5006 24.088 21.5006 24.742C21.5006 25.396 21.3536 25.969 21.0596 26.461C20.7656 26.947 20.3546 27.325 19.8266 27.595C19.3046 27.865 18.6926 28 17.9906 28H16.3076ZM15.5966 28V21.52H16.7666V28H15.5966ZM22.3905 28V21.52H23.5605V28H22.3905ZM22.9485 28V27.073H27.0525V28H22.9485ZM22.9485 25.12V24.211H26.7375V25.12H22.9485ZM22.9485 22.447V21.52H26.9535V22.447H22.9485ZM29.9978 28L27.6128 21.52H28.8368L30.7898 27.172H30.5918L32.5448 21.52H33.7058L31.3298 28H29.9978Z" fill="#F5F5F5"/>
<defs>
<linearGradient id="paint0_linear_58_100" x1="2.39542" y1="12.3793" x2="37.0793" y2="12.3793" gradientUnits="userSpaceOnUse">
<stop stop-color="#D93025"/>
<stop offset="1" stop-color="#EA4335"/>
</linearGradient>
<linearGradient id="paint1_linear_58_100" x1="22.4516" y1="39.2803" x2="5.10801" y2="9.24021" gradientUnits="userSpaceOnUse">
<stop stop-color="#1E8E3E"/>
<stop offset="1" stop-color="#34A853"/>
</linearGradient>
<linearGradient id="paint2_linear_58_100" x1="35.0227" y1="9.6589" x2="17.68" y2="39.6975" gradientUnits="userSpaceOnUse">
<stop stop-color="#FBBC04"/>
<stop offset="1" stop-color="#FCC934"/>
</linearGradient>
</defs>
</svg>
