<svg width="71" height="40" viewBox="0 0 71 40" fill="none" xmlns="http://www.w3.org/2000/svg">
<path d="M40.7011 12.6186H47.0079V19.0686H50.2002C51.6915 19.062 53.1719 18.8141 54.5841 18.3346C55.3262 18.0889 56.0406 17.7662 56.7157 17.3719C55.8517 16.1765 55.3389 14.7635 55.2351 13.2922C54.9704 11.1453 55.5232 8.97734 56.7835 7.21923L57.4471 6.45257L58.2364 7.08852C60.3304 8.62408 61.7491 10.9102 62.1954 13.4682C64.6304 12.7193 67.2627 12.9642 69.5177 14.1494L70.3849 14.6521L69.93 15.542C69.0074 17.0981 67.6431 18.3448 66.0103 19.1236C64.3775 19.9024 62.55 20.1781 60.7601 19.9157C55.2979 33.5222 43.4159 39.9647 28.9824 39.9647C25.3881 40.1785 21.8027 39.4183 18.6044 37.7641C15.4062 36.1099 12.7138 33.6231 10.8112 30.5661L10.7484 30.458L10.1803 29.3042C8.89543 26.3893 8.39375 23.1896 8.72486 20.0213L8.81284 19.0661H14.1996V12.6186H20.5089V6.30929H33.1275V0H40.6986L40.7011 12.6186Z" fill="#3A4E55"/>
<path d="M61.1447 15.0066C61.188 13.6213 60.8847 12.2471 60.2622 11.0088C59.6398 9.77051 58.7179 8.70724 57.5804 7.91553C56.5952 9.36189 56.1305 11.1 56.2625 12.845C56.3945 14.59 57.1153 16.2385 58.3068 17.5202C55.9644 19.2561 53.1154 20.1722 50.2003 20.1269H9.76303C9.41591 23.3538 9.99759 26.6128 11.4396 29.5204L11.8996 30.3625C12.1906 30.8564 12.5087 31.3339 12.8523 31.7928C14.5147 31.9 16.0472 31.9377 17.4498 31.9059C19.7226 31.9199 21.9845 31.5902 24.1588 30.9281C24.2804 30.8861 24.4138 30.8941 24.5295 30.9505C24.6453 31.0068 24.7339 31.1068 24.7759 31.2285C24.8179 31.3501 24.8098 31.4835 24.7535 31.5992C24.6971 31.715 24.5971 31.8036 24.4755 31.8456C24.2492 31.9235 24.013 31.9989 23.7691 32.0668C22.2561 32.4899 20.7006 32.7428 19.1314 32.8209C19.242 32.8209 19.0158 32.8385 19.0158 32.8385L18.8097 32.8561C18.0782 32.8963 17.3015 32.9063 16.4846 32.9063C15.6023 32.9063 14.725 32.8887 13.7623 32.841L13.7371 32.8586C15.6977 34.8978 18.0723 36.4935 20.701 37.5385C23.3298 38.5834 26.1519 39.0533 28.9774 38.9165C42.9534 38.9165 54.8078 32.7203 60.0588 18.8072C63.7841 19.1893 67.3635 18.2391 68.9899 15.0619C67.7753 14.4459 66.4344 14.1203 65.0726 14.1107C63.7108 14.1011 62.3679 14.4078 61.1447 15.0066Z" fill="#00AADA"/>
<path d="M61.1448 15.0066C61.188 13.6213 60.8847 12.2471 60.2622 11.0088C59.6398 9.77051 58.7179 8.70724 57.5804 7.91553C56.5952 9.36189 56.1305 11.1 56.2625 12.845C56.3945 14.59 57.1153 16.2385 58.3068 17.5202C55.9644 19.2561 53.1154 20.1722 50.2003 20.1269H12.1586C11.9511 22.38 12.3295 24.6485 13.2571 26.7123C14.1846 28.7761 15.6297 30.5651 17.4523 31.9059C19.7251 31.9199 21.987 31.5902 24.1613 30.9281C24.2215 30.9073 24.2853 30.8986 24.3489 30.9024C24.4125 30.9062 24.4747 30.9226 24.532 30.9505C24.5893 30.9784 24.6406 31.0173 24.6829 31.065C24.7251 31.1127 24.7576 31.1682 24.7784 31.2285C24.7992 31.2887 24.8079 31.3525 24.8041 31.4161C24.8002 31.4797 24.7839 31.5419 24.756 31.5992C24.7281 31.6565 24.6892 31.7078 24.6415 31.75C24.5938 31.7923 24.5382 31.8248 24.478 31.8456C24.2518 31.9235 24.0155 31.9989 23.7717 32.0668C22.2181 32.5021 20.6217 32.7668 19.0108 32.8561L18.963 32.8008C23.7189 35.2415 30.6164 35.2315 38.5243 32.195C47.5476 28.5494 55.4412 22.5737 61.3986 14.8784L61.1473 14.999" fill="#27B9EC"/>
<path d="M9.8385 24.3347C10.0767 26.1394 10.6181 27.891 11.4397 29.5154L11.8997 30.3575C12.1907 30.8514 12.5088 31.3289 12.8524 31.7877C14.5147 31.895 16.0472 31.9327 17.4499 31.9008C19.7227 31.9148 21.9845 31.5852 24.1588 30.923C24.2191 30.9022 24.2828 30.8935 24.3464 30.8973C24.41 30.9012 24.4723 30.9175 24.5296 30.9454C24.5869 30.9733 24.6381 31.0122 24.6804 31.0599C24.7227 31.1076 24.7551 31.1632 24.7759 31.2234C24.7967 31.2837 24.8054 31.3474 24.8016 31.411C24.7978 31.4746 24.7814 31.5369 24.7535 31.5942C24.7256 31.6515 24.6867 31.7027 24.639 31.745C24.5913 31.7873 24.5358 31.8197 24.4755 31.8405C24.2493 31.9184 24.013 31.9938 23.7692 32.0617C22.2175 32.4906 20.6236 32.7494 19.0159 32.8334H18.7645C18.033 32.8736 17.2563 32.8988 16.4469 32.8988C15.5646 32.8988 14.6647 32.8812 13.6819 32.8334C15.6486 34.8742 18.0287 36.4711 20.6627 37.5172C23.2968 38.5632 26.124 39.0343 28.9549 38.8989C40.9199 38.8989 51.3265 34.3567 57.3592 24.3196L9.8385 24.3347Z" fill="#088CB9"/>
<path d="M12.5205 24.3347C13.1302 27.3965 14.8954 30.106 17.4498 31.9008C19.7226 31.9148 21.9845 31.5852 24.1588 30.923C24.2804 30.881 24.4138 30.8891 24.5295 30.9454C24.6452 31.0017 24.7339 31.1017 24.7759 31.2234C24.8179 31.3451 24.8098 31.4784 24.7535 31.5942C24.6971 31.7099 24.5971 31.7985 24.4755 31.8405C24.2492 31.9184 24.013 31.9938 23.7691 32.0617C22.2095 32.4897 20.6083 32.7484 18.9932 32.8334C23.749 35.2742 30.6264 35.239 38.5319 32.2C43.4104 30.2787 47.968 27.6257 52.0478 24.3322L12.5205 24.3347Z" fill="#039CC7"/>
<path d="M19.8327 14.1268H20.2651V18.6841H19.8327V14.1268ZM19.0032 14.1268H19.4532V18.6841H19.0032V14.1268ZM18.1737 14.1268H18.6236V18.6841H18.1762L18.1737 14.1268ZM17.3442 14.1268H17.7941V18.6841H17.3467L17.3442 14.1268ZM16.5147 14.1268H16.9646V18.6841H16.5172L16.5147 14.1268ZM15.7028 14.1268H16.1351V18.6841H15.7078V14.1268H15.7028ZM15.2478 13.6718H20.715V19.1415H15.2503V13.6718H15.2478Z" fill="#00ACD3"/>
<path d="M26.1446 7.81747H26.577V12.3747H26.1446V7.81747ZM25.3151 7.81747H25.765V12.3747H25.3151V7.81747ZM24.4856 7.81747H24.9355V12.3747H24.4856V7.81747ZM23.6561 7.81747H24.106V12.3747H23.6561V7.81747ZM22.8266 7.81747H23.274V12.3747H22.8266V7.81747ZM22.0147 7.81747H22.447V12.3747H22.0147V7.81747ZM21.5597 7.3625H27.0294V12.8322H21.5622V7.35999L21.5597 7.3625Z" fill="#00ACD3"/>
<path d="M26.1446 14.1268H26.577V18.6841H26.1446V14.1268ZM25.3151 14.1268H25.765V18.6841H25.3151V14.1268ZM24.4856 14.1268H24.9355V18.6841H24.4856V14.1268ZM23.6561 14.1268H24.106V18.6841H23.6561V14.1268ZM22.8266 14.1268H23.274V18.6841H22.8266V14.1268ZM22.0147 14.1268H22.447V18.6841H22.0147V14.1268ZM21.5597 13.6718H27.0294V19.1415H21.5622L21.5597 13.6718Z" fill="#26C2EE"/>
<path d="M32.4514 14.1268H32.8837V18.6841H32.4514V14.1268ZM31.6219 14.1268H32.0718V18.6841H31.6244L31.6219 14.1268ZM30.7924 14.1268H31.2423V18.6841H30.7949V14.1268H30.7924ZM29.9628 14.1268H30.4178V18.6841H29.9679V14.1268H29.9628ZM29.1333 14.1268H29.5833V18.6841H29.1333V14.1268ZM28.3214 14.1268H28.7538V18.6841H28.3214V14.1268ZM27.8665 13.6718H33.3362V19.1415H27.8715V13.6718H27.8665Z" fill="#00ACD3"/>
<path d="M32.4514 7.81747H32.8837V12.3747H32.4514V7.81747ZM31.6219 7.81747H32.0718V12.3747H31.6244L31.6219 7.81747ZM30.7924 7.81747H31.2423V12.3747H30.7949V7.81747H30.7924ZM29.9628 7.81747H30.4178V12.3747H29.9679V7.81747H29.9628ZM29.1333 7.81747H29.5833V12.3747H29.1333V7.81747ZM28.3214 7.81747H28.7538V12.3747H28.3214V7.81747ZM27.8665 7.3625H33.3362V12.8322H27.8715V7.35999L27.8665 7.3625Z" fill="#26C2EE"/>
<path d="M38.7631 14.1268H39.1954V18.6841H38.7631V14.1268ZM37.9336 14.1268H38.3835V18.6841H37.9336V14.1268ZM37.1041 14.1268H37.554V18.6841H37.1041V14.1268ZM36.2746 14.1268H36.7245V18.6841H36.2746V14.1268ZM35.4451 14.1268H35.895V18.6841H35.4451V14.1268ZM34.6332 14.1268H35.0655V18.6841H34.6332V14.1268ZM34.1882 13.6718H39.658V19.1415H34.1882V13.6718Z" fill="#26C2EE"/>
<path d="M38.7631 7.81747H39.1955V12.3747H38.7631V7.81747ZM37.9336 7.81747H38.3836V12.3747H37.9336V7.81747ZM37.1041 7.81747H37.5541V12.3747H37.1041V7.81747ZM36.2746 7.81747H36.7246V12.3747H36.2746V7.81747ZM35.4451 7.81747H35.8951V12.3747H35.4451V7.81747ZM34.6332 7.81747H35.0655V12.3747H34.6332V7.81747ZM34.1782 7.3625H39.6479V12.8322H34.1883V7.35999L34.1782 7.3625Z" fill="#00ACD3"/>
<path d="M38.7631 1.50569H39.1954V6.06296H38.7631V1.50569ZM37.9336 1.50569H38.3835V6.06296H37.9336V1.50569ZM37.1041 1.50569H37.554V6.06296H37.1041V1.50569ZM36.2746 1.50569H36.7245V6.06296H36.2746V1.50569ZM35.4451 1.50569H35.895V6.06296H35.4451V1.50569ZM34.6332 1.50569H35.0655V6.06296H34.6332V1.50569ZM34.1882 1.05072H39.658V6.52045H34.1882V1.05072Z" fill="#26C2EE"/>
<path d="M45.0725 14.1268H45.4998V18.6841H45.0725V14.1268ZM44.243 14.1268H44.6904V18.6841H44.243V14.1268ZM43.4134 14.1268H43.8634V18.6841H43.4134V14.1268ZM42.5839 14.1268H43.0339V18.6841H42.5839V14.1268ZM41.7544 14.1268H42.2044V18.6841H41.7544V14.1268ZM40.9425 14.1268H41.3749V18.6841H40.9425V14.1268ZM40.4875 13.6718H45.9573V19.1415H40.4901L40.4875 13.6718Z" fill="#00ACD3"/>
<path d="M26.6875 28.0072C26.9858 28.0072 27.2774 28.0957 27.5254 28.2614C27.7734 28.4271 27.9668 28.6626 28.0809 28.9382C28.1951 29.2138 28.2249 29.5171 28.1667 29.8096C28.1085 30.1022 27.9649 30.3709 27.754 30.5819C27.543 30.7928 27.2743 30.9364 26.9818 30.9946C26.6892 31.0528 26.3859 31.0229 26.1104 30.9088C25.8348 30.7946 25.5992 30.6013 25.4335 30.3533C25.2678 30.1053 25.1793 29.8137 25.1793 29.5154C25.1793 29.1154 25.3382 28.7318 25.6211 28.4489C25.9039 28.1661 26.2875 28.0072 26.6875 28.0072Z" fill="#D5EEF2"/>
<path d="M26.6875 28.4345C26.8216 28.4343 26.9546 28.459 27.0797 28.5074C27.021 28.5414 26.9711 28.5885 26.9336 28.645C26.8962 28.7016 26.8724 28.766 26.864 28.8332C26.8555 28.9005 26.8628 28.9688 26.8851 29.0328C26.9074 29.0968 26.9442 29.1548 26.9927 29.2022C27.0411 29.2496 27.0998 29.2852 27.1643 29.3062C27.2287 29.3272 27.2972 29.333 27.3642 29.3231C27.4313 29.3133 27.4952 29.2881 27.5509 29.2495C27.6066 29.2109 27.6527 29.16 27.6855 29.1006C27.7743 29.3145 27.7921 29.5513 27.7363 29.7761C27.6804 30.0009 27.5538 30.2018 27.3751 30.3492C27.1964 30.4965 26.9751 30.5826 26.7438 30.5948C26.5125 30.6069 26.2835 30.5443 26.0904 30.4164C25.8973 30.2885 25.7504 30.1019 25.6713 29.8842C25.5923 29.6665 25.5853 29.4291 25.6513 29.2071C25.7174 28.9851 25.853 28.7902 26.0382 28.6511C26.2234 28.512 26.4484 28.4361 26.68 28.4345" fill="#3A4E55"/>
<path d="M0.00251378 24.8802H70.1839C68.6556 24.4931 65.3501 23.9702 65.8931 21.9669C63.1155 25.1818 56.4141 24.2291 54.7224 22.638C52.8396 25.3703 41.8751 24.3322 41.1109 22.2031C38.7506 24.9682 31.4333 24.9682 29.073 22.2031C28.3189 24.3322 17.3443 25.3703 15.4615 22.638C13.7698 24.2241 7.07092 25.1818 4.29082 21.9669C4.83628 23.9778 1.52579 24.4931 0 24.8802" fill="#3A4E55"/>
<path d="M30.6968 38.8788C27.6102 37.5633 25.1354 35.1289 23.7692 32.0643C22.1368 32.4973 20.462 32.7501 18.7746 32.8184C18.0439 32.8586 17.2756 32.8795 16.4695 32.8812C15.5411 32.8812 14.5625 32.8536 13.5336 32.7983C15.5188 34.8656 17.926 36.4811 20.5914 37.5351C23.2567 38.5891 26.1178 39.0568 28.98 38.9065C29.5565 38.9065 30.1288 38.8956 30.6968 38.8738" fill="#C0DBE1"/>
<path d="M25.1567 34.4925C24.6088 33.735 24.1436 32.9209 23.7692 32.0643C22.1368 32.4973 20.462 32.7501 18.7745 32.8184C20.7618 33.8148 22.936 34.3834 25.1567 34.4874" fill="#D5EEF2"/>
</svg>
