<svg width="40" height="40" viewBox="0 0 40 40" fill="none" xmlns="http://www.w3.org/2000/svg">
<rect width="40" height="40" rx="9" fill="#1E1E1E"/>
<path d="M19.6666 20.4999C19.6666 17.8304 21.8304 15.6666 24.5 15.6666C27.1695 15.6666 29.3333 17.8304 29.3333 20.4999C29.3333 23.1694 27.1695 25.3332 24.5 25.3332C21.8304 25.3332 19.6666 23.1694 19.6666 20.4999Z" fill="#1ABCFE"/>
<path d="M10 30.1666C10 27.4971 12.1638 25.3333 14.8333 25.3333H19.6667V30.1666C19.6667 32.8362 17.5029 35 14.8333 35C12.1638 35 10 32.8362 10 30.1666Z" fill="#0ACF83"/>
<path d="M19.6666 6V15.6667H24.5C27.1695 15.6667 29.3333 13.5029 29.3333 10.8333C29.3333 8.16381 27.1695 6 24.5 6H19.6666Z" fill="#FF7262"/>
<path d="M10 10.8333C10 13.5029 12.1638 15.6667 14.8333 15.6667H19.6667V6H14.8333C12.1638 6 10 8.16381 10 10.8333Z" fill="#F24E1E"/>
<path d="M10 20.4999C10 23.1694 12.1638 25.3332 14.8333 25.3332H19.6667V15.6666H14.8333C12.1638 15.6666 10 17.8304 10 20.4999Z" fill="#A259FF"/>
</svg>
