<svg width="40" height="40" viewBox="0 0 40 40" fill="none" xmlns="http://www.w3.org/2000/svg">
<path d="M39.2468 18.2187L21.782 0.755134C21.5427 0.515737 21.2587 0.325828 20.946 0.196259C20.6333 0.06669 20.2982 0 19.9598 0C19.6213 0 19.2862 0.06669 18.9735 0.196259C18.6608 0.325828 18.3768 0.515737 18.1375 0.755134L14.5122 4.38218L19.1118 8.98172C19.6525 8.79807 20.2339 8.7694 20.7901 8.89895C21.3463 9.0285 21.8551 9.3111 22.2591 9.71479C22.6653 10.1214 22.9488 10.6341 23.0773 11.1943C23.2058 11.7545 23.174 12.3396 22.9856 12.8826L27.4202 17.3158C27.9633 17.1272 28.5486 17.0954 29.109 17.2241C29.6693 17.3529 30.1821 17.6369 30.5884 18.0437C30.873 18.3283 31.0988 18.6661 31.2529 19.038C31.4069 19.4098 31.4862 19.8084 31.4862 20.2109C31.4862 20.6134 31.4069 21.0119 31.2529 21.3838C31.0988 21.7557 30.873 22.0935 30.5884 22.3781C30.013 22.953 29.2328 23.2758 28.4194 23.2758C27.6061 23.2758 26.8259 22.953 26.2505 22.3781C25.823 21.9499 25.5318 21.4048 25.4134 20.8115C25.295 20.2181 25.3549 19.603 25.5853 19.0436L21.4498 14.9094V25.791C21.8863 26.0066 22.2652 26.3231 22.555 26.7143C22.8448 27.1055 23.0373 27.5601 23.1164 28.0405C23.1955 28.5208 23.1591 29.0132 23.0101 29.4766C22.8611 29.9401 22.6038 30.3614 22.2595 30.7057C21.9749 30.9903 21.6371 31.2161 21.2652 31.3702C20.8934 31.5242 20.4948 31.6035 20.0923 31.6035C19.6898 31.6035 19.2912 31.5242 18.9194 31.3702C18.5475 31.2161 18.2097 30.9903 17.9251 30.7057C17.6404 30.4211 17.4145 30.0832 17.2605 29.7113C17.1064 29.3394 17.0271 28.9408 17.0271 28.5382C17.0271 28.1357 17.1064 27.7371 17.2605 27.3652C17.4145 26.9933 17.6404 26.6554 17.9251 26.3708C18.2119 26.0834 18.5528 25.8557 18.9281 25.7009V14.7192C18.5543 14.5652 18.2146 14.3389 17.9286 14.0533C17.6426 13.7677 17.4158 13.4284 17.2612 13.0549C17.1067 12.6814 17.0275 12.281 17.0282 11.8768C17.0289 11.4726 17.1094 11.0725 17.2652 10.6995L12.73 6.16349L0.753656 18.1368C0.271047 18.6204 0 19.2757 0 19.9588C0 20.642 0.271047 21.2973 0.753656 21.7808L18.2194 39.2466C18.7029 39.729 19.3581 40 20.0412 40C20.7242 40 21.3794 39.729 21.863 39.2466L39.2468 21.8627C39.7294 21.3791 40.0005 20.7239 40.0005 20.0407C40.0005 19.3575 39.7294 18.7022 39.2468 18.2187Z" fill="#F03C2E"/>
</svg>
