<svg width="40" height="39" viewBox="0 0 40 39" fill="none" xmlns="http://www.w3.org/2000/svg">
<path fill-rule="evenodd" clip-rule="evenodd" d="M20.0165 0C8.94791 0 0 8.93746 0 19.9943C0 28.8327 5.73324 36.3141 13.6868 38.9621C14.6812 39.1611 15.0454 38.5318 15.0454 38.0025C15.0454 37.539 15.0126 35.9501 15.0126 34.2947C9.4445 35.4866 8.28498 31.9112 8.28498 31.9112C7.39015 29.594 6.06429 28.9984 6.06429 28.9984C4.24185 27.7736 6.19704 27.7736 6.19704 27.7736C8.21861 27.906 9.27938 29.8259 9.27938 29.8259C11.0686 32.8712 13.9518 32.0107 15.1118 31.481C15.2773 30.1899 15.8079 29.2962 16.3713 28.7998C11.9303 28.3362 7.25781 26.615 7.25781 18.9348C7.25781 16.75 8.05267 14.9625 9.31216 13.5724C9.11344 13.0759 8.41732 11.0231 9.51128 8.27568C9.51128 8.27568 11.2014 7.74594 15.0122 10.3281C16.6438 9.89038 18.3263 9.66774 20.0165 9.66587C21.7067 9.66587 23.4295 9.89783 25.0205 10.3281C28.8317 7.74594 30.5218 8.27568 30.5218 8.27568C31.6158 11.0231 30.9192 13.0759 30.7205 13.5724C32.0132 14.9625 32.7753 16.75 32.7753 18.9348C32.7753 26.615 28.1028 28.3029 23.6287 28.7998C24.358 29.4286 24.9873 30.6202 24.9873 32.5072C24.9873 35.1884 24.9545 37.3403 24.9545 38.0021C24.9545 38.5318 25.3192 39.1611 26.3132 38.9625C34.2667 36.3137 39.9999 28.8327 39.9999 19.9943C40.0327 8.93746 31.052 0 20.0165 0Z" fill="black"/>
</svg>
