<svg width="45" height="40" viewBox="0 0 45 40" fill="none" xmlns="http://www.w3.org/2000/svg">
<path d="M44.3651 22.8699L41.873 15.3968L36.946 0.57145C36.8877 0.403587 36.7782 0.258209 36.633 0.155724C36.4878 0.0532383 36.3142 -0.00120989 36.1365 2.18423e-05C35.9593 -0.000546193 35.7864 0.0542101 35.6418 0.15665C35.4973 0.25909 35.3883 0.404102 35.3301 0.57145L30.4032 15.3873H14.0381L9.1111 0.568275C9.0528 0.401258 8.94371 0.256667 8.79911 0.154763C8.65451 0.05286 8.48165 -0.00124777 8.30475 2.18423e-05C8.12747 -0.00102075 7.95432 0.0535498 7.80968 0.156055C7.66503 0.25856 7.55617 0.40384 7.4984 0.57145L2.57777 15.3873L0.0888838 22.8699C-0.0212672 23.2032 -0.0211617 23.5632 0.0891847 23.8966C0.199531 24.2299 0.414255 24.5188 0.701582 24.7206L22.2254 39.9968L43.7428 24.7206C44.0315 24.5198 44.2478 24.2314 44.3598 23.8981C44.4719 23.5648 44.4737 23.2043 44.3651 22.8699Z" fill="#FC6D26"/>
<path d="M22.2222 39.9873L30.4063 15.3842H14.0413L22.2222 39.9873Z" fill="#E24329"/>
<path d="M22.2222 39.9873L14.0349 15.3842H2.58093L22.2222 39.9873Z" fill="#FC6D26"/>
<path d="M2.57142 15.3937L0.0825362 22.8667C-0.0276148 23.2001 -0.0275094 23.5601 0.082837 23.8934C0.193183 24.2267 0.407908 24.5157 0.695234 24.7175L22.2222 40L2.57142 15.3969V15.3937Z" fill="#FCA326"/>
<path d="M2.57776 15.3937H14.0444L9.11109 0.577796C9.05291 0.410448 8.94395 0.265436 8.79939 0.162996C8.65484 0.0605564 8.48191 0.00580007 8.30474 0.0063681C8.12703 0.00513637 7.95339 0.0595846 7.8082 0.16207C7.66302 0.264556 7.55357 0.409933 7.49522 0.577796L2.57776 15.3937Z" fill="#E24329"/>
<path d="M22.2222 39.9873L30.4063 15.3842H41.8793L22.2222 39.9873Z" fill="#FC6D26"/>
<path d="M41.8729 15.3937L44.3587 22.8667C44.4693 23.2 44.4695 23.5602 44.3591 23.8936C44.2487 24.2271 44.0337 24.516 43.746 24.7175L22.2222 39.9873L41.8666 15.3937H41.8729Z" fill="#FCA326"/>
<path d="M41.873 15.3937H30.4127L35.3365 0.577815C35.3945 0.409688 35.5038 0.26404 35.6491 0.161489C35.7944 0.0589376 35.9682 0.00467681 36.146 0.00638687C36.5111 0.00638687 36.8349 0.238133 36.9524 0.577815L41.8794 15.3937H41.873Z" fill="#E24329"/>
</svg>
