<svg width="36" height="40" viewBox="0 0 36 40" fill="none" xmlns="http://www.w3.org/2000/svg">
<path d="M35.27 0L32.0569 35.9959L17.6135 40L3.20985 36.0014L0 0H35.27Z" fill="#E44D26"/>
<path d="M17.635 36.9393L29.306 33.7037L32.0517 2.94354H17.635V36.9393Z" fill="#F16529"/>
<path d="M11.3887 11.7746H17.635V7.35913H6.56323L6.66886 8.54369L7.75415 20.7114H17.635V16.296H11.7923L11.3887 11.7746ZM12.3839 22.9192H7.95144L8.56999 29.8521L17.6147 32.3628L17.635 32.3573V27.7634L17.6157 27.7685L12.6983 26.4407L12.3839 22.9192Z" fill="#EBEBEB"/>
<path d="M17.6198 20.7114H23.057L22.5443 26.4379L17.6197 27.7671V32.3608L26.6716 29.8521L26.738 29.1061L27.7757 17.4817L27.8834 16.296H17.6198V20.7114ZM17.6198 11.7638V11.7746H28.2852L28.3737 10.7822L28.575 8.54369L28.6804 7.35913H17.6198V11.7638Z" fill="white"/>
</svg>
