<svg width="40" height="40" viewBox="0 0 40 40" fill="none" xmlns="http://www.w3.org/2000/svg">
<path d="M40 20C40 8.95431 31.0457 0 20 0C8.95431 0 0 8.95431 0 20C0 31.0457 8.95431 40 20 40C31.0457 40 40 31.0457 40 20Z" fill="#1275B1"/>
<path d="M15.1694 10.9888C15.1694 12.3238 14.0121 13.4061 12.5847 13.4061C11.1572 13.4061 10 12.3238 10 10.9888C10 9.6537 11.1572 8.57141 12.5847 8.57141C14.0121 8.57141 15.1694 9.6537 15.1694 10.9888Z" fill="white"/>
<path d="M10.3535 15.183H14.7717V28.5714H10.3535V15.183Z" fill="white"/>
<path d="M21.8851 15.183H17.4669V28.5714H21.8851C21.8851 28.5714 21.8851 24.3566 21.8851 21.7213C21.8851 20.1394 22.4253 18.5507 24.5803 18.5507C27.0157 18.5507 27.0011 20.6207 26.9897 22.2244C26.9749 24.3206 27.0103 26.4599 27.0103 28.5714H31.4286V21.5053C31.3911 16.9934 30.2154 14.9144 26.3476 14.9144C24.0506 14.9144 22.6267 15.9573 21.8851 16.9007V15.183Z" fill="white"/>
</svg>
