<svg width="42" height="40" viewBox="0 0 42 40" fill="none" xmlns="http://www.w3.org/2000/svg">
<path fill-rule="evenodd" clip-rule="evenodd" d="M38.2538 30.9361C36.0375 30.8808 34.3181 31.1025 32.877 31.7125C32.4621 31.8796 31.7962 31.8796 31.7415 32.4057C31.9633 32.6262 31.99 32.9871 32.1844 33.2927C32.5168 33.8474 33.0994 34.5947 33.6255 34.9829C34.2082 35.427 34.7902 35.8699 35.3989 36.2581C36.4797 36.9228 37.6991 37.311 38.7519 37.9762C39.3619 38.3645 39.9712 38.8633 40.5812 39.2794C40.8856 39.5012 41.08 39.8621 41.4682 40L41.4682 39.9161C41.2744 39.6677 41.2185 39.3074 41.0254 39.0291C40.7477 38.7527 40.4707 38.5024 40.193 38.2259C39.3898 37.1451 38.3917 36.2022 37.3102 35.427C36.4232 34.817 34.4833 33.9859 34.1231 32.9604L34.0684 32.9045C34.6771 32.8486 35.3983 32.6268 35.9803 32.4604C36.9232 32.2119 37.7817 32.2666 38.7513 32.0175C39.1954 31.9063 39.6383 31.7678 40.0824 31.6293L40.0824 31.3802C39.5836 30.8814 39.2234 30.2161 38.6973 29.7453C37.2841 28.526 35.7312 27.334 34.1237 26.3364C33.2646 25.7823 32.1559 25.4214 31.2421 24.9512C30.9086 24.7848 30.3551 24.7015 30.1613 24.4245C29.6613 23.8151 29.3849 23.0114 29.0246 22.2902C28.2215 20.7659 27.445 19.0757 26.7524 17.4682C26.2536 16.3873 25.948 15.3065 25.3393 14.309C22.4845 9.59748 19.3799 6.74265 14.6132 3.94372C13.5883 3.3617 12.3689 3.112 11.0658 2.80763C10.3732 2.77968 9.68058 2.72439 8.98737 2.69644C8.54324 2.50264 8.10035 1.9759 7.71213 1.7262C6.13253 0.728619 2.05836 -1.43301 0.893696 1.42121C0.145203 3.22256 2.00246 4.99596 2.63977 5.91092C3.11184 6.54823 3.72058 7.26877 4.05414 7.98931C4.24732 8.46015 4.3026 8.95956 4.49702 9.45835C4.93991 10.6777 5.35608 12.0355 5.93811 13.1722C6.24247 13.7543 6.57479 14.3642 6.96302 14.891C7.18477 15.196 7.57298 15.3345 7.6556 15.8333C7.26738 16.388 7.24067 17.2191 7.01892 17.9123C6.02072 21.0442 6.40894 24.9239 7.82207 27.224C8.2662 27.9166 9.31906 29.4409 10.7328 28.8589C11.9801 28.3601 11.7024 26.7805 12.0627 25.3947C12.1466 25.0624 12.0907 24.8407 12.2565 24.6189L12.2565 24.6742C12.6447 25.45 13.0329 26.1985 13.3932 26.9743C14.2523 28.3322 15.7493 29.7459 16.9965 30.6882C17.6612 31.187 18.1879 32.0467 19.019 32.3511L19.019 32.2672H18.9644C18.7979 32.0187 18.5482 31.9075 18.3264 31.7131C17.8277 31.2143 17.2736 30.6044 16.8854 30.0503C15.7219 28.4986 14.697 26.7799 13.7821 25.0065C13.3379 24.1474 12.9497 23.2052 12.5907 22.3461C12.423 22.0132 12.423 21.5144 12.1466 21.3485C11.7304 21.9579 11.1217 22.4852 10.8154 23.2331C10.2887 24.4245 10.234 25.8935 10.0402 27.4178C9.92841 27.4458 9.98432 27.4178 9.92842 27.4731C9.04265 27.252 8.73703 26.337 8.40472 25.5612C7.57361 23.5934 7.43447 20.4342 8.15501 18.1614C8.34881 17.5793 9.18116 15.75 8.84884 15.196C8.68113 14.6692 8.12831 14.3649 7.8227 13.9487C7.46243 13.4219 7.07544 12.7573 6.82573 12.1753C6.1611 10.623 5.82878 8.9049 5.10762 7.35263C4.77406 6.63209 4.19266 5.88359 3.7212 5.21896C3.19446 4.47046 2.61368 3.94372 2.1975 3.05733C2.05899 2.75235 1.86518 2.25356 2.08693 1.92124C2.14159 1.69949 2.25341 1.61625 2.47392 1.56097C2.83419 1.25598 3.86034 1.6442 4.22061 1.81005C5.24552 2.2256 6.10457 2.61383 6.96363 3.19523C7.35186 3.47227 7.76803 3.99901 8.26682 4.13814H8.84947C9.73648 4.33194 10.7334 4.19343 11.5645 4.44251C13.0336 4.91397 14.3635 5.60656 15.5561 6.35505C19.1861 8.65519 22.1801 11.9256 24.2026 15.8333C24.5349 16.4706 24.6734 17.0526 24.979 17.7179C25.5617 19.0763 26.2822 20.4615 26.863 21.792C27.4456 23.0946 27.9997 24.4251 28.8308 25.5059C29.247 26.0879 30.9092 26.3923 31.6577 26.6973C32.2124 26.9464 33.0708 27.1687 33.5709 27.4731C34.5125 28.0551 35.4548 28.7204 36.3418 29.3577C36.7847 29.6894 38.1711 30.382 38.2538 30.9361Z" fill="#00678C"/>
<path fill-rule="evenodd" clip-rule="evenodd" d="M9.98507 6.85236C9.51424 6.85236 9.18193 6.90764 8.84961 6.99088L8.84961 7.04616H8.90427C9.12602 7.48966 9.51424 7.79465 9.79128 8.18225C10.013 8.62576 10.2075 9.06926 10.4292 9.51277L10.4839 9.45748C10.8721 9.18045 11.0665 8.73694 11.0665 8.07169C10.9 7.87789 10.8727 7.68346 10.7342 7.48966C10.5677 7.21263 10.2074 7.07411 9.98507 6.85236Z" fill="#00678C"/>
</svg>
