<svg width="41" height="40" viewBox="0 0 41 40" fill="none" xmlns="http://www.w3.org/2000/svg">
<path d="M7.30316 2.50196e-05H33.825C34.7758 0.000616559 35.7169 0.190132 36.5939 0.557574C37.4708 0.925015 38.2661 1.46307 38.9336 2.14051C39.601 2.81794 40.1274 3.62128 40.4822 4.5039C40.8369 5.38652 41.0129 6.33084 41 7.28208V32.718C40.9987 33.676 40.8087 34.6245 40.4409 35.509C40.0731 36.3936 39.5347 37.197 38.8564 37.8732C38.1782 38.5495 37.3735 39.0854 36.4882 39.4503C35.6029 39.8153 34.6544 40.002 33.6969 40H7.30316C6.34569 40.002 5.3972 39.8153 4.51191 39.4503C3.62661 39.0854 2.82185 38.5495 2.14363 37.8732C1.4654 37.197 0.927003 36.3936 0.559195 35.509C0.191388 34.6245 0.00138256 33.676 3.80313e-05 32.718V7.28208C-0.00933481 6.32101 0.173356 5.36776 0.537375 4.47834C0.901394 3.58893 1.4394 2.78128 2.11978 2.10287C2.80015 1.42446 3.60918 0.888958 4.49931 0.52784C5.38945 0.166721 6.34274 -0.0127317 7.30316 2.50196e-05Z" fill="#001E36"/>
<path d="M9.22498 28.0174V10.4533C9.22498 10.3251 9.22498 10.1969 9.3531 10.1969H14.7344C15.9099 10.1387 17.0855 10.313 18.1937 10.7097C19.0396 10.9804 19.8235 11.4161 20.5 11.9918C21.0693 12.5256 21.5077 13.1837 21.7812 13.9149C22.0327 14.6141 22.1627 15.3512 22.1656 16.0943C22.197 17.3674 21.8394 18.6198 21.1406 19.6841C20.4559 20.609 19.5229 21.3203 18.45 21.7354C17.2118 22.1558 15.9137 22.3723 14.6062 22.3764H12.9406V27.8892C12.9272 27.9864 12.8821 28.0765 12.8125 28.1456H9.48123C9.3531 28.2738 9.22498 28.1456 9.22498 28.0174ZM12.9406 13.5302V19.2995H14.4781C15.1256 19.2772 15.7693 19.1913 16.4 19.0431C16.9386 18.8691 17.4238 18.5602 17.8094 18.1456C18.2047 17.6357 18.3883 16.9928 18.3219 16.3508C18.3162 15.8149 18.1845 15.2878 17.9375 14.8123C17.6162 14.4054 17.2258 14.0583 16.7844 13.7867C16.1331 13.5241 15.4364 13.3934 14.7344 13.402H13.5812C13.3632 13.4177 13.1479 13.4608 12.9406 13.5302Z" fill="#31A8FF"/>
<path d="M32.8 18.1344C32.2772 17.8444 31.7166 17.6286 31.1344 17.4934C30.5037 17.3451 29.86 17.2592 29.2125 17.237C28.8658 17.2162 28.5184 17.2597 28.1875 17.3652C27.9312 17.3652 27.8031 17.4934 27.675 17.7498C27.5469 17.878 27.5469 18.0062 27.5469 18.2626C27.5382 18.3322 27.5453 18.4029 27.5674 18.4694C27.5896 18.536 27.6263 18.5967 27.675 18.6472C27.8622 18.8487 28.078 19.0215 28.3156 19.16C28.6743 19.3837 29.0624 19.5563 29.4687 19.6728C30.3822 19.9696 31.2459 20.4017 32.0312 20.9549C32.5629 21.3587 33.0371 21.8332 33.4406 22.3652C33.7028 22.9266 33.8342 23.5403 33.825 24.16C33.7929 24.9685 33.5736 25.7585 33.1844 26.4677C32.664 27.1151 32.0079 27.6403 31.2625 28.0062C30.2828 28.3837 29.2366 28.5582 28.1875 28.519C27.413 28.497 26.6417 28.4112 25.8812 28.2626C25.2679 28.1514 24.667 27.9796 24.0875 27.7498C23.9594 27.7498 23.8312 27.4934 23.8312 27.3652V24.4164L23.9594 24.2882H24.0875C24.7796 24.6639 25.5098 24.9648 26.2656 25.1857C26.9382 25.342 27.6252 25.428 28.3156 25.4421C28.7982 25.4569 29.2785 25.3695 29.725 25.1857C29.8743 25.119 30.0017 25.0114 30.0925 24.8752C30.1832 24.7391 30.2335 24.58 30.2375 24.4164C30.24 24.2843 30.2052 24.1541 30.1373 24.0407C30.0693 23.9274 29.9708 23.8354 29.8531 23.7754C29.3492 23.4199 28.7848 23.1593 28.1875 23.0062C27.3143 22.7083 26.4929 22.2757 25.7531 21.7241C25.2289 21.3525 24.7918 20.8713 24.4719 20.3139C24.2096 19.7524 24.0782 19.1387 24.0875 18.519C24.1034 17.7885 24.3255 17.0773 24.7281 16.4677C25.132 15.7642 25.7653 15.221 26.5219 14.9293C27.4835 14.4805 28.5361 14.2611 29.5969 14.2882C30.3253 14.267 31.0541 14.3099 31.775 14.4164C32.3008 14.4839 32.8168 14.613 33.3125 14.8011L33.4406 14.9293V18.0062L33.3125 18.1344H32.8Z" fill="#31A8FF"/>
</svg>
