<svg width="40" height="40" viewBox="0 0 40 40" fill="none" xmlns="http://www.w3.org/2000/svg">
<path d="M3.75 29.7187V37.3806C3.75004 37.7226 3.81811 38.0611 3.95024 38.3765C4.08237 38.6919 4.27593 38.9779 4.51964 39.2177C4.76336 39.4576 5.05235 39.6466 5.36981 39.7737C5.68726 39.9008 6.02683 39.9635 6.36875 39.9581L13.2712 39.8481C13.6362 39.8423 13.9957 39.759 14.326 39.6039C14.6564 39.4487 14.95 39.2252 15.1875 38.9481L35.6294 15.0994C36.0294 14.6319 36.25 14.0369 36.25 13.4213V6.32812C36.25 5.98956 36.1833 5.65431 36.0538 5.34152C35.9242 5.02873 35.7343 4.74452 35.4949 4.50512C35.2555 4.26571 34.9713 4.07581 34.6585 3.94625C34.3457 3.81669 34.0104 3.75 33.6719 3.75H26.795C26.0513 3.75 25.3444 4.07125 24.8544 4.63062L4.38812 28.0212C3.97676 28.4911 3.75 29.0943 3.75 29.7187Z" fill="#00D886"/>
<path d="M3.75 30.6344V37.4231C3.75 38.1069 4.02162 38.7626 4.50512 39.2461C4.98861 39.7296 5.64436 40.0012 6.32812 40.0012H14.1819C14.3069 40.0012 14.4319 39.9925 14.5556 39.9737L37.7962 36.5687C38.4086 36.4789 38.9681 36.1717 39.3727 35.7035C39.7773 35.2352 40 34.637 40 34.0181V24.3937C40 24.0551 39.9333 23.7197 39.8036 23.4068C39.674 23.094 39.484 22.8097 39.2444 22.5703C39.0049 22.3309 38.7206 22.141 38.4076 22.0115C38.0947 21.882 37.7593 21.8154 37.4206 21.8156L25.8556 21.8187C25.5894 21.8187 25.325 21.86 25.0719 21.9406L5.54438 28.1781C5.02351 28.3444 4.56899 28.672 4.24646 29.1135C3.92392 29.555 3.75007 30.0876 3.75 30.6344Z" fill="url(#paint0_linear_56_34)"/>
<path d="M0 2.57812V23.9075C0 24.9444 0.620625 25.8794 1.575 26.2825L24.9644 36.1562C25.2881 36.2931 25.6363 36.3625 25.9881 36.3587L37.4437 36.265C38.1236 36.2592 38.7737 35.9852 39.2524 35.5024C39.7312 35.0197 39.9999 34.3674 40 33.6875V22.6463C40 22.1425 39.8525 21.6506 39.5762 21.2294L26.3831 1.1625C26.1485 0.805369 25.8288 0.512159 25.4527 0.309239C25.0767 0.106319 24.6561 5.39572e-05 24.2287 0L2.57812 0C1.89436 0 1.23861 0.271623 0.755115 0.755115C0.271623 1.23861 0 1.89436 0 2.57812Z" fill="url(#paint1_linear_56_34)"/>
<path d="M32.5 7.5H7.5V32.5H32.5V7.5Z" fill="black"/>
<path d="M20.625 27.5H10.625V29.375H20.625V27.5ZM10.6206 10.62H14.6469C15.3075 10.62 15.8869 10.7406 16.3844 10.9819C16.8831 11.2231 17.2669 11.5625 17.5375 12.0006C17.8075 12.4381 17.9425 12.9444 17.9425 13.5206C17.9425 14.0969 17.805 14.62 17.5306 15.0619C17.2556 15.5044 16.8662 15.8469 16.3619 16.0906C15.8569 16.3344 15.2675 16.4556 14.5931 16.4556H12.4494V20H10.62V10.6206L10.6206 10.62ZM15.3331 14.7637C15.5637 14.65 15.7406 14.4869 15.8656 14.275C15.9906 14.0625 16.0531 13.8137 16.0531 13.5281C16.0531 13.2425 15.9906 13.0019 15.8656 12.7944C15.7406 12.5862 15.5631 12.4256 15.3331 12.3119C15.1031 12.1981 14.8344 12.1412 14.5262 12.1412H12.4487V14.935H14.5262C14.8344 14.935 15.1031 14.8775 15.3331 14.7637ZM21.0706 19.5262C20.351 19.1129 19.758 18.5108 19.3556 17.785C18.9406 17.0456 18.7331 16.2206 18.7331 15.3094C18.7331 14.3981 18.9406 13.5731 19.3556 12.8344C19.758 12.1084 20.351 11.5061 21.0706 11.0925C21.7987 10.6706 22.6119 10.4587 23.5094 10.4587C24.2687 10.4587 24.9656 10.5994 25.5994 10.8806C26.2124 11.146 26.7549 11.5509 27.1837 12.0631C27.6043 12.5672 27.8953 13.1665 28.0312 13.8087H26.115C25.9933 13.4747 25.8028 13.1699 25.5556 12.9144C25.3037 12.6547 24.9989 12.4522 24.6619 12.3206C24.2987 12.1796 23.912 12.1091 23.5225 12.1131C22.9681 12.1131 22.4681 12.2519 22.0212 12.5287C21.5741 12.8065 21.2117 13.2014 20.9731 13.6706C20.7206 14.1556 20.5944 14.7012 20.5944 15.3081C20.5944 15.9162 20.7206 16.4619 20.9731 16.9462C21.2115 17.4157 21.574 17.8109 22.0212 18.0887C22.4681 18.3656 22.9681 18.5037 23.5225 18.5037C23.9118 18.5079 24.2984 18.4375 24.6612 18.2962C24.9957 18.1664 25.2984 17.9665 25.5492 17.7099C25.7999 17.4533 25.9929 17.1461 26.115 16.8087H28.0312C27.8951 17.4508 27.6042 18.0498 27.1837 18.5537C26.7549 19.0659 26.2124 19.4708 25.5994 19.7362C24.965 20.0175 24.2687 20.1581 23.5094 20.1581C22.6119 20.1581 21.7987 19.9475 21.0706 19.525V19.5262Z" fill="white"/>
<defs>
<linearGradient id="paint0_linear_56_34" x1="4.79437" y1="40.2456" x2="38.2037" y2="24.7556" gradientUnits="userSpaceOnUse">
<stop offset="0.1" stop-color="#00D886"/>
<stop offset="0.59" stop-color="#F0EB18"/>
</linearGradient>
<linearGradient id="paint1_linear_56_34" x1="37.4581" y1="37.2975" x2="0.835625" y2="0.675" gradientUnits="userSpaceOnUse">
<stop offset="0.3" stop-color="#F0EB18"/>
<stop offset="0.7" stop-color="#00C4F4"/>
</linearGradient>
</defs>
</svg>
