<svg width="40" height="40" viewBox="0 0 40 40" fill="none" xmlns="http://www.w3.org/2000/svg">
<path d="M27.0001 5.99991L17.0001 -9.15527e-05L3.00012 5.99991L0.00012207 31.9999L14.0001 39.9999L19.0001 34.9999L27.0001 5.99991Z" fill="#20D789"/>
<path d="M30.0001 -9.15527e-05L32.0001 11.9999L20.0001 9.99991L30.0001 -9.15527e-05Z" fill="#A5E66E"/>
<path d="M40 15.9999L29.984 8.07089L25 24.9999L37 23.9999L40 15.9999Z" fill="#0BC6EF"/>
<path d="M13.0001 31.9999L12.0001 35.9999L28.0001 39.9999L40.0001 35.9999L35.0001 16.9999L18.0001 25.9999L13.0001 31.9999Z" fill="#F0F74F"/>
<path d="M33.0001 7.99991H8.00012V32.9999H33.0001V7.99991Z" fill="#212121"/>
<path d="M12 10.9999H10V21.9999H12V10.9999Z" fill="#FAFAFA"/>
<path d="M14.5 10.9999H10V12.9999H14.5C15.328 12.9999 16 13.6719 16 14.4999C16 15.3279 15.328 15.9999 14.5 15.9999H10V17.9999H14.5C16.433 17.9999 18 16.4329 18 14.4999C18 12.5669 16.433 10.9999 14.5 10.9999Z" fill="#FAFAFA"/>
<path d="M20 28H10V30H20V28Z" fill="#FAFAFA"/>
<path d="M27.037 18.8989C26.399 19.5739 25.502 19.9999 24.5 19.9999C22.567 19.9999 21 18.4329 21 16.4999C21 14.5669 22.567 12.9999 24.5 12.9999C25.458 12.9999 26.324 13.3859 26.956 14.0099L28.207 12.4459C27.229 11.5509 25.93 10.9999 24.5 10.9999C21.462 10.9999 19 13.4619 19 16.4999C19 19.5379 21.462 21.9999 24.5 21.9999C25.988 21.9999 27.336 21.4059 28.326 20.4459L27.037 18.8989Z" fill="#FAFAFA"/>
</svg>
