<svg width="41" height="40" viewBox="0 0 41 40" fill="none" xmlns="http://www.w3.org/2000/svg">
<path d="M19.9612 0.0172511C9.75417 0.0172511 10.3997 4.43071 10.3997 4.43071V9.01668H20.1064V10.4543H6.53393C6.53393 10.4543 0 9.64922 0 20.0072C0 30.3652 5.76912 29.9439 5.76912 29.9439H9.10006V25.1121C9.10006 25.1121 8.91317 19.343 14.7067 19.343H24.4278C24.4278 19.343 29.8505 19.4293 29.8505 14.0929V5.3364C29.8505 5.3364 30.6728 0 20.0144 0L19.9612 0.0172511ZM14.596 3.08942C14.9411 3.08071 15.281 3.17454 15.5728 3.35902C15.8645 3.54351 16.095 3.81037 16.2351 4.12586C16.3752 4.44135 16.4186 4.7913 16.3598 5.13145C16.301 5.47159 16.1426 5.78666 15.9048 6.03681C15.6669 6.28695 15.3602 6.46093 15.0234 6.53676C14.6866 6.61258 14.3349 6.58683 14.0128 6.46277C13.6907 6.33871 13.4126 6.12191 13.2137 5.83978C13.0148 5.55766 12.904 5.22289 12.8953 4.8778V4.84905C12.8953 4.61986 12.9405 4.39292 13.0282 4.18117C13.1159 3.96943 13.2445 3.77703 13.4065 3.61497C13.5686 3.45291 13.761 3.32435 13.9727 3.23665C14.1845 3.14894 14.4114 3.1038 14.6406 3.1038L14.596 3.08942Z" fill="url(#paint0_linear_58_187)"/>
<path d="M20.2487 39.9971C30.4557 39.9971 29.8102 35.5693 29.8102 35.5693V30.9977H20.1049V29.5601H33.7191C33.7191 29.5601 40.253 30.2904 40.253 19.9928C40.253 9.69521 34.4839 10.0561 34.4839 10.0561H31.1098V14.8246C31.1098 14.8246 31.2967 20.5937 25.5031 20.5937H15.7777C15.7777 20.5937 10.3508 20.5118 10.3508 25.8482V34.6636C10.3508 34.6636 9.52844 40 20.1869 40H20.2444L20.2487 39.9971ZM25.6138 36.9106C25.2688 36.9193 24.9288 36.8254 24.6371 36.641C24.3453 36.4565 24.1148 36.1896 23.9747 35.8741C23.8346 35.5586 23.7913 35.2087 23.8501 34.8685C23.9089 34.5284 24.0672 34.2133 24.3051 33.9632C24.543 33.713 24.8497 33.5391 25.1865 33.4632C25.5232 33.3874 25.8749 33.4132 26.1971 33.5372C26.5192 33.6613 26.7973 33.8781 26.9962 34.1602C27.1951 34.4423 27.3059 34.7771 27.3145 35.1222V35.1653C27.3145 35.6282 27.1307 36.0721 26.8034 36.3994C26.4761 36.7267 26.0321 36.9106 25.5693 36.9106H25.6138Z" fill="url(#paint1_linear_58_187)"/>
<defs>
<linearGradient id="paint0_linear_58_187" x1="3.97809" y1="3.93171" x2="23.0791" y2="22.9895" gradientUnits="userSpaceOnUse">
<stop stop-color="#387EB8"/>
<stop offset="1" stop-color="#366994"/>
</linearGradient>
<linearGradient id="paint1_linear_58_187" x1="15.2782" y1="16.3464" x2="37.1013" y2="35.3984" gradientUnits="userSpaceOnUse">
<stop stop-color="#FFE052"/>
<stop offset="1" stop-color="#FFC331"/>
</linearGradient>
</defs>
</svg>
