<svg width="40" height="40" viewBox="0 0 40 40" fill="none" xmlns="http://www.w3.org/2000/svg">
<path d="M20 40C31.0457 40 40 31.0457 40 20C40 8.9543 31.0457 0 20 0C8.9543 0 0 8.9543 0 20C0 31.0457 8.9543 40 20 40Z" fill="url(#paint0_linear_58_188)"/>
<path d="M29.9809 11.7269C30.1589 10.5762 29.0649 9.66793 28.0417 10.1171L7.66405 19.064C6.93035 19.3861 6.98402 20.4976 7.74498 20.7399L11.9473 22.0781C12.7495 22.3336 13.6179 22.2014 14.3183 21.7176L23.7929 15.1719C24.0786 14.9744 24.39 15.3807 24.1459 15.6323L17.3259 22.6637C16.6643 23.3459 16.7956 24.5017 17.5915 25.0007L25.2272 29.789C26.0836 30.326 27.1853 29.7866 27.3455 28.7516L29.9809 11.7269Z" fill="white"/>
<defs>
<linearGradient id="paint0_linear_58_188" x1="20" y1="0" x2="20" y2="40" gradientUnits="userSpaceOnUse">
<stop stop-color="#37BBFE"/>
<stop offset="1" stop-color="#007DBB"/>
</linearGradient>
</defs>
</svg>
