<svg width="40" height="41" viewBox="0 0 40 41" fill="none" xmlns="http://www.w3.org/2000/svg">
<path d="M7.20988 20.1707C7.20653 20.2799 7.20539 20.3902 7.20539 20.5005C7.20539 20.6109 7.20653 20.7201 7.20988 20.8304C7.38441 27.7442 13.044 33.2946 20.0005 33.2946C26.956 33.2946 32.6156 27.7442 32.7901 20.8304C32.6404 28.503 27.2194 34.882 20.0005 36.4999C18.8409 36.7599 17.6352 36.8973 16.3979 36.8973C7.41253 36.8973 0.114839 29.6706 0.00113387 20.7123C0 20.6424 0 20.5715 0 20.5005C0 20.4296 0 20.3587 0.00113387 20.2889C0.114839 9.34121 9.02585 0.5 20.0005 0.5C30.9752 0.5 39.8852 9.3412 39.9989 20.2889C39.8852 11.3306 32.5875 4.10267 23.6033 4.10267C22.366 4.10267 21.1602 4.24001 20.0006 4.50007C12.7805 6.11793 7.35964 12.4981 7.20988 20.1707Z" fill="url(#paint0_linear_48_11)"/>
<path d="M32.7946 20.5005V35.8728C29.327 38.7617 24.8676 40.5 20.0005 40.5C9.02584 40.5 0.114803 31.6598 0.00109863 20.7122C0.114803 29.6705 7.41247 36.8972 16.3979 36.8972C17.6351 36.8972 18.8409 36.7599 20.0005 36.4998C27.2194 34.8819 32.6403 28.503 32.7901 20.8303C32.7935 20.7201 32.7946 20.6109 32.7946 20.5005Z" fill="url(#paint1_linear_48_11)"/>
<path d="M40 20.5005V36.8973C40 38.8878 38.3867 40.4999 36.3973 40.4999C34.4079 40.4999 32.7946 38.8878 32.7946 36.8973V20.5005C32.7946 13.4336 27.0664 7.70533 20.0006 7.70533C13.044 7.70533 7.38438 13.2557 7.2099 20.1706C7.35962 12.498 12.7806 6.11787 20.0006 4.50006C21.1602 4.24 22.366 4.10266 23.6032 4.10266C32.5874 4.10266 39.8851 11.3306 39.9988 20.2889C40 20.3587 40 20.4296 40 20.5005Z" fill="url(#paint2_linear_48_11)"/>
<defs>
<linearGradient id="paint0_linear_48_11" x1="14.8819" y1="1.16097" x2="24.0631" y2="35.4257" gradientUnits="userSpaceOnUse">
<stop stop-color="#00E850"/>
<stop offset="0.4911" stop-color="#00EB50"/>
<stop offset="0.8259" stop-color="#00F44E"/>
<stop offset="1" stop-color="#00FC4D"/>
</linearGradient>
<linearGradient id="paint1_linear_48_11" x1="2.62227" y1="32.9385" x2="33.8829" y2="24.5622" gradientUnits="userSpaceOnUse">
<stop stop-color="#00E850"/>
<stop offset="0.2803" stop-color="#00E54F"/>
<stop offset="0.4913" stop-color="#00DB4A"/>
<stop offset="0.6796" stop-color="#00CB43"/>
<stop offset="0.8536" stop-color="#00B538"/>
<stop offset="1" stop-color="#009B2C"/>
</linearGradient>
<linearGradient id="paint2_linear_48_11" x1="16.428" y1="5.70532" x2="36.7285" y2="40.8669" gradientUnits="userSpaceOnUse">
<stop stop-color="#009B2C"/>
<stop offset="0.218" stop-color="#00B337"/>
<stop offset="0.5304" stop-color="#00D045"/>
<stop offset="0.8019" stop-color="#00E24D"/>
<stop offset="1" stop-color="#00E850"/>
</linearGradient>
</defs>
</svg>
