<svg width="38" height="40" viewBox="0 0 38 40" fill="none" xmlns="http://www.w3.org/2000/svg">
<path d="M34.7571 0.00131435C34.8543 -0.00485786 34.9466 0.045089 34.9949 0.130072C35.0433 0.215054 35.0393 0.320263 34.9846 0.401288L25.1435 13.829C25.0714 13.9107 24.9679 13.9576 24.8591 13.9576C24.7504 13.9576 24.6468 13.9107 24.5747 13.829L21.1047 9.94352C21.02 9.85515 20.8999 9.81019 20.7782 9.8213C20.6566 9.83241 20.5465 9.89838 20.479 10.0007L18.6726 12.3055C18.4745 12.5583 18.2335 12.8902 18.4312 13.1433V13.1433L24.6885 19.6572C24.7606 19.7389 24.8641 19.7857 24.9729 19.7857C25.0817 19.7857 25.1852 19.7389 25.2573 19.6572L37.5444 5.77236C37.617 5.69405 37.7294 5.66745 37.8291 5.70501C37.9288 5.74257 37.9961 5.83686 37.9995 5.94378V39.0469V39.0469C38.0343 39.6171 37.6203 40.0338 37.05 39.9987V39.9987H0.95V39.9987C0.379719 40.0338 -0.0343062 39.6172 0.000503853 39.0469V39.0469V0.953144V0.953144C-0.0291567 0.46721 0.444945 -0.0106576 0.931652 0.000654989C0.939782 0.000843959 0.945982 0.00106689 0.95 0.00131435H34.7571ZM25.0867 22.7998C23.3931 22.7699 21.761 23.4364 20.5687 24.6449C19.3764 25.8533 18.7275 27.4986 18.7725 29.1994C18.7725 33.142 21.6167 35.6561 25.3142 35.6561C27.0258 35.6989 28.7042 35.1771 30.0925 34.1705C30.2212 34.0531 30.2454 33.859 30.1494 33.7134L29.1255 32.1706C29.0104 32.038 28.8145 32.0134 28.6704 32.1135C27.7804 32.724 26.733 33.0615 25.6555 33.0849C23.7424 33.0849 22.5121 31.9242 22.2169 30.5154C22.1929 30.4009 22.1826 30.2358 22.2993 30.2279V30.2279H30.8889C31.072 30.2155 31.2178 30.069 31.2302 29.8851V29.5422C31.2302 25.5425 28.7273 22.7998 25.0867 22.7998ZM16.6108 20.6285C14.8831 19.2099 12.6969 18.4779 10.4673 18.5715C6.59913 18.5715 4.20997 20.8571 4.20997 23.5998C4.20997 29.8279 13.6528 27.8281 13.6528 30.7422C13.6528 31.6564 12.7427 32.5706 10.8086 32.5706C8.97171 32.5858 7.19949 31.8901 5.85963 30.6279C5.77964 30.5528 5.67127 30.516 5.56231 30.5269C5.45335 30.5378 5.35438 30.5955 5.29078 30.685L3.81178 32.742C3.71581 32.8876 3.73997 33.0818 3.86866 33.1991C5.40455 34.6276 7.56617 35.599 10.5811 35.599C15.0181 35.599 17.1797 33.3134 17.2935 30.3422C17.2935 24.1712 7.8506 25.9425 7.8506 23.3141C7.8506 22.3427 8.70387 21.657 10.1829 21.657C11.8132 21.6346 13.4011 22.1797 14.6768 23.1998C14.7518 23.2615 14.8484 23.2902 14.9447 23.2795C15.0411 23.2687 15.129 23.2194 15.1887 23.1427L16.6677 21.1428C16.7292 21.0675 16.7578 20.9704 16.7471 20.8736C16.7364 20.7768 16.6872 20.6885 16.6108 20.6285ZM25.1435 25.3139C26.632 25.2303 27.9247 26.3048 28.1383 27.7674C28.1552 27.8833 28.1616 28.0487 28.0447 28.0566V28.0566H22.2424V28.0566C22.1256 28.0487 22.1343 27.8834 22.1555 27.7683C22.4194 26.3363 23.677 25.2901 25.1435 25.3139Z" fill="#2CB134"/>
</svg>
