<svg width="40" height="40" viewBox="0 0 40 40" fill="none" xmlns="http://www.w3.org/2000/svg">
<path d="M0.816172 32.0274C0.786913 32.0057 0.766153 31.9744 0.75748 31.9391C0.748806 31.9037 0.752766 31.8664 0.768673 31.8336L5.54109 22.0051L0.0361864 15.4314C0.00967674 15.3996 -0.00310822 15.3585 0.000642112 15.3173C0.00439244 15.276 0.0243711 15.238 0.056186 15.2114L16.1121 1.8323C17.5001 0.676781 19.2414 0.0306186 21.0472 0.00106094C22.8529 -0.0284967 24.6145 0.560328 26.0395 1.66981C27.4627 2.77697 28.4625 4.33929 28.8718 6.0954C29.281 7.85151 29.0747 9.69488 28.2875 11.3171L26.5376 14.9214C27.2201 14.6921 27.8957 14.4839 28.5632 14.2965L36.4843 12.0215C36.5048 12.0156 36.5262 12.014 36.5474 12.0167C36.5685 12.0194 36.5889 12.0265 36.6072 12.0374C36.6255 12.0482 36.6414 12.0628 36.6539 12.08C36.6664 12.0973 36.6753 12.1169 36.6799 12.1377L39.9961 26.8781C40.001 26.8996 40.0013 26.9219 39.997 26.9436C39.9928 26.9652 39.9841 26.9857 39.9714 27.0038C39.9587 27.0219 39.9424 27.0371 39.9236 27.0485C39.9047 27.0599 39.8836 27.0672 39.8617 27.07C38.8105 27.2025 33.0756 28.0262 25.9363 31.0261C17.8465 34.423 12.5085 39.2522 11.7522 39.9585C11.7255 39.9834 11.6907 39.998 11.6541 39.9996C11.6176 40.0012 11.5817 39.9897 11.5529 39.9672L0.816172 32.0274Z" fill="url(#paint0_linear_56_39)"/>
<path d="M32.4993 7.49969H7.49976V32.4992H32.4993V7.49969Z" fill="black"/>
<path d="M20.6245 27.4993H10.6247V29.3743H20.6245V27.4993ZM13.4165 16.4808L9.98657 10.6196H11.9553L14.0796 14.3646L14.3277 14.9008L14.5759 14.3577L16.6452 10.6203H18.5814L15.2046 16.4683V19.9982H13.4165V16.4808ZM18.9295 10.6196H26.4525V12.2677H23.6119V19.9995H21.7826V12.2683H18.9289V10.6203L18.9295 10.6196Z" fill="white"/>
<defs>
<linearGradient id="paint0_linear_56_39" x1="-0.0638118" y1="19.9995" x2="40.0323" y2="19.9995" gradientUnits="userSpaceOnUse">
<stop stop-color="#FB43FF"/>
<stop offset="0.97" stop-color="#FB406D"/>
</linearGradient>
</defs>
</svg>
